<?xml version="1.0" encoding="UTF-8"?>
<svg id="_图层_1" data-name="图层 1" xmlns="http://www.w3.org/2000/svg" viewBox="0 0 237.35 49.15">
  <defs>
    <style>
      .cls-1 {
        fill: #231815;
      }

      .cls-1, .cls-2, .cls-3 {
        stroke-width: 0px;
      }

      .cls-2 {
        fill: #b81c22;
      }

      .cls-3 {
        fill: #003c81;
      }
    </style>
  </defs>
  <g>
    <path class="cls-2" d="m102.7.16s-6.26-.58-11.5.91l-.31.15-1.71,8.11h-6.2s-2.29,10.55-2.29,10.55c0,0-1.57,4.72,1.01,7.16,0,0,2.39,2.29,7.98,2.57,0,0,6.82,1.14,13.66-1.93,0,0,3.62-1.26,4.95-5.29l.56-3.42h-11.56s-.69,3.66-1.01,4.49c0,0-.67,1.67-2.82,1.58,0,0-2.09,0-1.56-2.7l3.28-14.75s.32-2.98,2.66-2.93c0,0,2.61-.32,2.1,2.3l-1.24,5.86h11.57s.95-5.97.95-5.97c0,0,1.38-5.78-8.52-6.69"/>
    <polygon class="cls-3" points="87.68 7.31 89.24 0 60.48 0 58.89 7.37 67.14 7.35 61.93 29.85 73.76 29.85 78.79 7.29 87.68 7.31"/>
    <path class="cls-2" d="m55.63,2.11S53.14.14,46.28.05c0,0-12.81-.38-14.47,6.35,0,0-.04.13-.09.34l.07-.47S33.13,1.41,23.1.22c0,0-10.31-.96-15.65,2.66,0,0-2.65.96-3.95,5.5L.8,19.94s-1.62,4.45,1.02,7.15c0,0,2.42,2.29,8.08,2.57,0,0,7.16.98,14.08-2.09,0,0,3.1-1,4.44-5.04l.31-1.3c-.43,1.08-.98,1.81-.29,3.99,0,0,.5,3.64,8.72,4.28,0,0,10.17.98,15.35-2.56,0,0,3.39-2.31,3.88-6.84,0,0,.21-3.44-2.93-5.46,0,0-2.14-1.33-4.83-2.41l-4.39-1.97s-2.69-.59-1.55-4.03c0,0,.55-2.02,3.54-1.48,0,0,1.3.34.85,2.07l-.45,2.3h10.7s.46-2.18.51-2.85c0,0,.43-2.43-2.25-4.12m-12.45,16.68s1.84.69,1.05,3.79c0,0-.81,2.48-3.46,2.06,0,0-1.85-.35-1.53-2.11l.9-3.54-22.79-.03s-.62,3.4-.95,4.23c0,0-.31,1.44-2.36,1.48,0,0-2.58-.08-1.92-2.33l3.39-14.72s.33-2.98,2.69-2.94c0,0,2.24.04,1.73,2.66l-1.18,5.5h11.73l.71-2.58c-.05,1.34.17,2.98,1.18,3.57.74.43,10.81,4.96,10.81,4.96Z"/>
  </g>
  <g>
    <path class="cls-1" d="m140.36,21.91h-8.75v7.87h-5.32v-7.87h-8.75c-.92,0-1.67-.75-1.67-1.67V6.31c0-.92.75-1.67,1.67-1.67h8.75V.08l5.32.13v4.43h8.75c.92,0,1.67.75,1.67,1.67v13.94c0,.92-.75,1.67-1.67,1.67Zm-14.07-5.29v-6.66h-3.99c-.74,0-1.34.6-1.34,1.34v3.99c0,.74.6,1.34,1.34,1.34h3.99Zm9.28-6.66h-3.96v6.66h3.96c.74,0,1.34-.6,1.34-1.34v-3.99c0-.74-.6-1.34-1.34-1.34Z"/>
    <path class="cls-1" d="m174.02,2.33v25.06c0,.92-.75,1.67-1.67,1.67h-23.59c-.92,0-1.67-.75-1.67-1.67V2.33c0-.92.75-1.67,1.67-1.67h23.59c.92,0,1.67.75,1.67,1.67Zm-6.37,3.02h-14.25c-.74,0-1.34.6-1.34,1.34v16.39c0,.74.6,1.34,1.34,1.34h14.25c.74,0,1.34-.6,1.34-1.34V6.68c0-.74-.6-1.34-1.34-1.34Zm-1.23,17.88h-13.44v-4.21h4.91v-2.8h-4.53v-3.76h4.53v-1.78h-4.84v-4.08h14.98v2.41c0,.92-.75,1.67-1.67,1.67h-3.81v1.78h5.16v2.09c0,.92-.75,1.67-1.67,1.67h-3.49v2.8h1.23c.21,0,.37-.19.33-.4-.05-.24-.1-.5-.16-.78-.1-.45-.16-.74-.21-.89h3.28c.04.19.11.51.21.96.1.45.18.82.24,1.12l.63,2.54c0,.92-.75,1.67-1.67,1.67Z"/>
    <path class="cls-1" d="m204.9,21.28h-5.6v8.35h-5.04v-8.35h-6.66l.54,3.54-5.14,4.03c-1.1.86-2.7.08-2.7-1.31v-12.94h-2.42v-5.1h7.23v10.36c0,.57.67.87,1.1.51.04-.03.07-.06.11-.09.36-.3.63-.53.8-.7v-3.25h7.14V5.95h-6.31V1.1h17.69v3.18c0,.92-.75,1.67-1.67,1.67h-4.67v10.36h7.27v3.3c0,.92-.75,1.67-1.67,1.67Zm-22.33-12.49c-.21-.36-.5-.79-.86-1.29-.36-.5-.74-1.01-1.15-1.55-.4-.53-.81-1.04-1.21-1.53-.4-.49-.76-.89-1.08-1.21l3.98-3.09c.32.32.67.69,1.05,1.1.38.41.76.84,1.13,1.28.37.44.73.87,1.07,1.31.34.44.64.83.89,1.2l-3.82,3.79Zm9.08-1.43c.19.38.4.84.62,1.39.22.54.44,1.11.65,1.71.21.6.41,1.18.59,1.75.18.57.32,1.08.43,1.53l-4.05,1.18c-.13-.47-.28-.99-.46-1.56-.18-.57-.37-1.15-.56-1.74-.19-.58-.38-1.14-.57-1.67-.19-.53-.37-1-.54-1.4l3.89-1.18Zm7.84,6.34c.19-.49.39-1.01.61-1.56.21-.55.41-1.11.59-1.67.18-.56.35-1.11.51-1.64.16-.53.29-1.01.4-1.43l3.92,1.12c-.11.43-.24.92-.41,1.48-.17.56-.36,1.14-.56,1.74-.2.6-.4,1.17-.61,1.72-.2.55-.39,1.03-.56,1.43l-3.89-1.18Z"/>
    <path class="cls-1" d="m213.73,15.51c-.3-.28-.65-.59-1.07-.94-.41-.35-.84-.71-1.27-1.07-.44-.36-.87-.71-1.31-1.04-.44-.33-.81-.62-1.13-.88l2.8-3.82c.42.3.87.61,1.32.94.46.33.89.65,1.31.97.41.32.8.62,1.15.91.35.29.64.54.88.75l-2.68,4.18Zm2.1,2.29c-.13.7-.29,1.57-.48,2.61-.19,1.04-.4,2.12-.62,3.23-.22,1.12-.44,2.2-.65,3.27-.21,1.06-.39,1.95-.54,2.68l-4.4-1.08c.23-.74.48-1.66.73-2.74.26-1.08.5-2.2.75-3.35.24-1.15.46-2.25.65-3.31.19-1.06.33-1.93.41-2.61l4.14,1.31Zm7.81,2.07c.4.4.85.84,1.35,1.32.5.48.99.96,1.48,1.45.49.49.96.97,1.4,1.43.45.47.83.88,1.15,1.24l-3.12,4.02c-.55-.77-1.13-1.54-1.72-2.31-.6-.78-1.19-1.51-1.78-2.21-.45.89-1.02,1.73-1.72,2.5-.7.78-1.56,1.62-2.58,2.53l-3.41-3.38c1.3-1.08,2.34-2.06,3.14-2.93.8-.87,1.42-1.76,1.86-2.68h-3.06V4.19l-2.23,3.31c-.28-.26-.62-.55-1.04-.88-.41-.33-.84-.66-1.29-.99-.45-.33-.89-.65-1.32-.96-.44-.31-.8-.56-1.1-.75l2.8-3.76c.32.17.66.37,1.04.61.37.23.74.48,1.1.73.36.25.72.52,1.07.78.35.27.67.51.97.72v-.24c0-.92.75-1.67,1.67-1.67h8.01c.92,0,1.67.75,1.67,1.67v17.87h-3.31V5.88h-4.91v14.82c.38-.83.64-1.73.78-2.71.14-.98.21-2.11.21-3.41v-7.68h3.06v9.05c0,.74-.01,1.44-.03,2.1-.02.66-.06,1.26-.13,1.82Zm8.7,2.23h-3.31V4.27c0-.95.79-1.7,1.73-1.67l1.58.06v19.44ZM237.35.43v25.02c0,.68-.07,1.24-.21,1.69-.14.45-.38.81-.72,1.1-.34.29-.78.51-1.32.69-.54.17-1.23.32-2.06.45l-1.34.22-1.59-5.29,1.4-.16c.62-.06,1.07-.21,1.35-.43.29-.22.43-.6.43-1.13V2.03c0-.94.78-1.7,1.72-1.67l2.33.07Z"/>
  </g>
  <g>
    <path class="cls-1" d="m0,44.2c0-2.03.82-3.68,2.07-4.95l.62.32c-1.19,1.24-1.93,2.77-1.93,4.62s.74,3.39,1.93,4.62l-.62.32c-1.25-1.27-2.07-2.92-2.07-4.95Z"/>
    <path class="cls-1" d="m14.99,47.38v.77H5.72v-.77h4.18v-5.96h-3.64v-.79h8.21v.79h-3.73v5.96h4.25Z"/>
    <path class="cls-1" d="m27.64,47.64v.76h-9.08v-.76h2.89v-8.05h.77v8.05h1.76v-8.04h.77v8.04h2.9Zm-7.45-1.95c-.25-.91-.87-2.47-1.41-3.65l.72-.22c.55,1.15,1.18,2.67,1.47,3.57l-.77.29Zm7.24-3.49c-.5,1.18-1.19,2.62-1.79,3.57l-.63-.34c.57-.94,1.32-2.43,1.72-3.57l.7.34Z"/>
    <path class="cls-1" d="m33.98,42.51h1.81v.72h-1.81v.27c.39.42,1.48,1.68,1.74,2.01l-.47.63c-.24-.39-.82-1.17-1.27-1.76v4.54h-.76v-4.57c-.51,1.2-1.2,2.38-1.86,3.1-.08-.21-.28-.52-.43-.71.79-.79,1.62-2.21,2.09-3.51h-1.83v-.72h2.03v-1.73c-.58.09-1.16.18-1.71.25-.04-.19-.13-.44-.22-.61,1.37-.19,2.99-.5,3.91-.86l.52.6c-.48.18-1.09.34-1.74.48v1.87Zm6.01-2.09v7.99h-.77v-.78h-2.32v.85h-.76v-8.06h3.84Zm-.77,6.46v-5.73h-2.32v5.73h2.32Z"/>
    <path class="cls-1" d="m46.76,39.7c-.24.7-.54,1.39-.87,2.05v7.23h-.72v-5.99c-.31.5-.65.95-.99,1.34-.07-.17-.29-.54-.43-.72.94-1.01,1.79-2.56,2.32-4.13l.69.21Zm6.44,1.47v.65h-6.58v-.65h6.58Zm-5.97,4.45h5.26v3.3h-.69v-.37h-3.9v.41h-.68v-3.34Zm5.15-2.33h-5.01v-.63h5.01v.63Zm-5.01.82h5.01v.63h-5.01v-.63Zm.53,2.15v1.64h3.9v-1.64h-3.9Zm1.83-5.15c-.14-.36-.46-.96-.72-1.38l.65-.27c.3.44.61.99.76,1.35l-.7.3Z"/>
    <path class="cls-1" d="m56.64,48.12c.41-.57.81-1.45,1.05-2.1l.68.29c-.28.63-.64,1.55-1.02,2.14l-.71-.33Zm4.41-2.78h-2.88v-4.91h2.41c.16-.33.31-.77.4-1.07l.89.16c-.15.32-.32.65-.49.91h3.1v4.91h-3.37c.53.46,1.12,1.12,1.39,1.56l-.62.38c-.26-.46-.85-1.14-1.38-1.63l.55-.31Zm1.66,2.71c.55,0,.64-.16.7-1.21.18.14.5.25.72.29-.1,1.32-.35,1.63-1.36,1.63h-2.37c-1.21,0-1.52-.22-1.52-1.04v-1.69h.77v1.68c0,.28.11.33.79.33h2.28Zm-3.79-6.18h4.79v-.83h-4.79v.83Zm0,1.42h4.79v-.83h-4.79v.83Zm0,1.42h4.79v-.83h-4.79v.83Zm5.81,1.14c.49.62,1,1.49,1.18,2.06l-.72.33c-.18-.57-.68-1.46-1.15-2.1l.69-.29Z"/>
    <path class="cls-1" d="m72.9,39.7c-.29.71-.65,1.4-1.05,2.05v7.2h-.8v-6c-.38.51-.78.98-1.2,1.36-.09-.17-.35-.57-.51-.74,1.1-.99,2.16-2.52,2.8-4.11l.76.24Zm4.46,8.29c.55,0,.62-.45.71-2.21.21.16.53.32.76.37-.1,1.93-.33,2.6-1.42,2.6h-1.83c-1.04,0-1.33-.31-1.33-1.47v-1.79c-.48.31-.97.59-1.44.83-.13-.16-.37-.43-.57-.58.66-.32,1.35-.73,2.02-1.18v-4.92h.81v4.3c1.08-.86,2.07-1.88,2.78-2.99l.76.5c-.95,1.32-2.21,2.51-3.54,3.48v2.37c0,.57.1.69.6.69h1.7Z"/>
    <path class="cls-1" d="m86.9,41.61c-.23.6-.52,1.31-.78,1.85h1.48v.71h-5.4v-.71h3.18c.28-.58.59-1.43.76-2.02l.77.17Zm.46-.23h-4.86v-.71h2.15c-.11-.34-.28-.75-.43-1.07l.67-.2c.22.41.43.91.55,1.27h1.91v.71Zm-4.57,3.73h4.32v3.68h-.76v-.42h-2.83v.5h-.74v-3.76Zm.99-1.69c-.09-.48-.36-1.22-.64-1.78l.66-.17c.3.54.58,1.27.69,1.76l-.71.19Zm-.25,2.39v1.88h2.83v-1.88h-2.83Zm7.92-5.49c-.37.95-.85,2.13-1.29,3.09.92.98,1.15,1.78,1.15,2.5,0,.59-.14,1.1-.47,1.32-.18.13-.4.2-.64.22-.26.03-.59.03-.88.02,0-.21-.08-.52-.21-.74.3.03.59.03.8.02.16-.01.3-.04.42-.1.21-.14.28-.46.27-.81,0-.65-.26-1.4-1.18-2.35.38-.87.79-1.97,1.07-2.77h-1.65v8.21h-.7v-8.92h2.66l.12-.04.53.35Z"/>
    <path class="cls-1" d="m97.97,46.68v2.2h-.71v-2.09c-.84.14-1.64.26-2.29.36l-.17-.78c.65-.07,1.52-.2,2.45-.33v-1.5h-1.1c-.37,0-.7.06-.79.15-.04-.16-.16-.5-.25-.69.2-.05.35-.36.56-.82.13-.26.4-.94.68-1.77h-1.44v-.74h1.67c.11-.4.23-.81.31-1.22l.75.17c-.08.34-.19.71-.29,1.05h1.97v.74h-2.22c-.29.88-.63,1.71-.98,2.42h1.13v-1.53h.71v1.53h1.3v.71h-1.3v1.39l1.37-.2.03.7-1.4.24Zm4.02-3.47c0,.29-.01.6-.03.95.36,1.85,1.11,3.47,2.39,4.15-.16.15-.4.44-.51.62-1.04-.6-1.71-1.76-2.16-3.18-.31,1.09-.95,2.23-2.21,3.2-.13-.17-.38-.41-.57-.52,2.2-1.63,2.36-3.78,2.36-5.23v-.48h.74v.49Zm-1.22-1.47c-.25.86-.58,1.63-.99,2.22-.14-.12-.46-.33-.64-.44.73-.97,1.13-2.48,1.35-4.08l.75.11c-.08.51-.18,1-.28,1.48h2.73l.08-.02.5.15c-.19.95-.46,2.07-.69,2.76l-.62-.19c.16-.51.32-1.28.47-2h-2.66Z"/>
    <path class="cls-1" d="m110.64,39.72c-.29.76-.63,1.53-1.03,2.24v6.96h-.74v-5.77c-.3.45-.63.85-.96,1.22-.07-.19-.3-.58-.44-.76.97-1.01,1.88-2.56,2.43-4.13l.73.23Zm6.32,5.64h-2.82v3.58h-.77v-3.58h-2.96v-.76h2.96v-2.28h-1.63c-.22.6-.47,1.14-.75,1.58-.15-.11-.47-.3-.67-.39.61-.85,1.04-2.2,1.28-3.54l.73.16c-.09.49-.21.98-.34,1.44h1.38v-1.99h.77v1.99h2.37v.76h-2.37v2.28h2.82v.76Z"/>
    <path class="cls-1" d="m126.91,46.41h-6.42v-.75h6.42v.75Zm2.16-2.93s0,.27-.03.37c-.29,2.96-.58,4.15-1.05,4.59-.26.27-.53.34-.97.36-.37.02-1.12.01-1.85-.04-.02-.23-.14-.55-.29-.76.81.07,1.61.07,1.91.07.26,0,.42-.01.53-.13.39-.3.65-1.37.89-3.75h-6.63c.32-1.15.74-3.11.99-4.53l.78.08c-.07.35-.14.74-.22,1.12h5.78v.74h-5.92c-.15.65-.28,1.3-.42,1.86h6.49Z"/>
    <path class="cls-1" d="m138.86,46.44c.98.74,2.45,1.36,3.74,1.68-.16.15-.37.44-.49.62-1.34-.39-2.91-1.16-3.97-2.05v2.23h-.76v-2.22c-1.06.91-2.62,1.7-3.94,2.12-.11-.2-.33-.49-.51-.63,1.29-.34,2.77-1,3.76-1.76h-3.51v-.63h4.2v-.7h.76v.7h4.26v.63h-3.54Zm-4.45-4.42c-.27.29-.58.57-.9.84-.13-.17-.37-.39-.55-.5,1.13-.86,1.96-2.03,2.41-2.93l.79.15c-.18.31-.36.66-.59.98h2.36c-.14-.3-.31-.65-.48-.94l.69-.21c.23.35.48.81.59,1.14h3.05v.62h-3.34v.7h2.92v.55h-2.92v.69h2.95v.55h-2.95v.72h3.68v.62h-6.94v.31h-.76v-3.29Zm3.27-.84h-2.51v.7h2.51v-.7Zm0,1.25h-2.51v.69h2.51v-.69Zm0,1.24h-2.51v.72h2.51v-.72Z"/>
    <path class="cls-1" d="m154.56,42.97c-.45,1.34-1.06,2.53-1.83,3.51.38,1.02.86,1.61,1.39,1.61.29,0,.42-.54.49-1.92.18.18.46.35.66.42-.15,1.77-.43,2.28-1.22,2.28s-1.42-.63-1.9-1.7c-.62.68-1.34,1.26-2.14,1.72-.11-.16-.38-.47-.56-.61.93-.5,1.73-1.14,2.39-1.92-.37-1.17-.62-2.7-.76-4.37h-3.58v1.35h2.65v.33c-.05,2.33-.11,3.2-.33,3.47-.16.2-.33.27-.62.3-.26.02-.73.02-1.24,0-.01-.24-.09-.53-.22-.73.48.04.92.05,1.1.05.15,0,.25-.02.31-.11.15-.16.2-.81.24-2.6h-1.89v.08c0,1.46-.16,3.54-1.09,4.89-.14-.16-.47-.43-.64-.52.85-1.27.95-3.04.95-4.39v-2.9h4.33c-.04-.57-.05-1.15-.06-1.75h.8c0,.6.01,1.18.04,1.75h3.36v.76h-3.3c.1,1.38.29,2.62.57,3.61.56-.82,1.01-1.76,1.33-2.81l.78.2Zm-1.8-3.47c.64.32,1.46.82,1.86,1.18l-.48.53c-.39-.36-1.18-.89-1.84-1.25l.46-.47Z"/>
    <path class="cls-1" d="m166.51,47.99c.58,0,.69-.33.77-1.68.19.15.52.28.76.34-.14,1.56-.38,2.11-1.48,2.11h-2.29c-1.15,0-1.5-.3-1.5-1.52v-1.09h-2.56v.63h-.79v-5.83h3.35v-1.49h.81v1.49h3.44v5.2h-3.44v1.11c0,.6.11.73.74.73h2.18Zm-6.29-6.29v1.49h2.56v-1.49h-2.56Zm2.56,3.69v-1.49h-2.56v1.49h2.56Zm.81-3.69v1.49h2.67v-1.49h-2.67Zm2.67,3.69v-1.49h-2.67v1.49h2.67Z"/>
    <path class="cls-1" d="m180.05,40.7c-.33,1.08-.87,2-1.52,2.76.64.62,1.43,1.17,2.37,1.53-.16.15-.37.45-.48.63-.1-.05-.22-.09-.33-.15v3.42h-.74v-.34h-2.6v.37h-.72v-3.46c-.21.1-.42.2-.62.29-.07-.16-.23-.36-.37-.52h-1.09v1.86c.45-.1.9-.21,1.36-.32l.07.7c-1.41.34-2.89.7-3.98.97l-.15-.75.53-.11v-3.54h.65v3.41l.8-.19v-4.2h-1.45v-3.17h3.36v2.75c.82-.78,1.5-1.94,1.88-3.19l.74.18c-.1.3-.22.6-.33.88h2.01l.14-.03.48.22Zm-7.58,1.68h1.95v-1.82h-1.95v1.82Zm2.76,2.67c.83-.35,1.65-.9,2.35-1.62-.38-.47-.7-.96-.96-1.42-.29.46-.61.85-.95,1.19-.11-.11-.35-.33-.54-.46v.31h-1.19v1.5h1.29v.5Zm4.36.15c-.58-.34-1.09-.78-1.54-1.23-.48.48-1.01.89-1.56,1.23h3.1Zm-.25,2.67v-2h-2.6v2h2.6Zm-2.24-6.68l-.1.2c.26.51.6,1.05,1.03,1.56.44-.53.8-1.11,1.06-1.76h-1.98Z"/>
    <path class="cls-1" d="m186.74,39.69c-.22.68-.49,1.35-.79,2.01v7.25h-.76v-5.84c-.3.53-.64.99-.98,1.38-.07-.18-.28-.58-.4-.78.89-1.04,1.72-2.62,2.22-4.22l.71.2Zm3.8,8.2c.37.07.77.09,1.18.09.28.01,1.49,0,1.85,0-.09.18-.21.52-.25.73h-1.65c-1.62,0-2.87-.33-3.67-1.84-.26.84-.65,1.54-1.16,2.1-.13-.12-.45-.36-.62-.47.94-.88,1.36-2.31,1.54-4.04l.74.07c-.05.48-.12.92-.22,1.35.33.97.85,1.49,1.51,1.79v-4.22h-2.24v-3.52h5.25v3.52h-2.24v1.58h2.43v.73h-2.43v2.13Zm-2.27-5.13h3.75v-2.13h-3.75v2.13Z"/>
    <path class="cls-1" d="m199.06,46.92c.2.13.42.32.76.53.68.43,1.54.5,2.71.5s2.76-.08,3.76-.2c-.08.21-.21.58-.23.8-.73.05-2.57.11-3.56.11-1.28,0-2.14-.12-2.86-.57-.42-.28-.76-.62-.98-.62-.35,0-.86.61-1.39,1.32l-.51-.7c.55-.58,1.08-1.05,1.54-1.23v-2.95h-1.42v-.73h2.18v3.73Zm-.28-5.09c-.32-.48-1.01-1.23-1.58-1.75l.55-.42c.57.5,1.28,1.22,1.61,1.67l-.58.49Zm3.19,2.84c-.16.99-.55,1.99-1.47,2.68-.1-.15-.39-.44-.56-.55.78-.58,1.12-1.35,1.27-2.13h-1.42v-.75h1.51c.02-.22.02-.43.02-.64v-1.21h-1.47v-.75h1.47v-1.65h.76v1.65h1.71v-1.65h.76v1.65h1.33v.75h-1.33v1.85h1.54v.75h-1.54v2.63h-.76v-2.63h-1.82Zm.1-1.38c0,.21,0,.42-.02.63h1.74v-1.85h-1.71v1.22Z"/>
    <path class="cls-1" d="m218.41,41.3v4.86h-.79v-.59h-2.98v3.37h-.8v-3.37h-2.97v.64h-.76v-4.91h3.73v-1.85h.8v1.85h3.77Zm-4.57,3.51v-2.75h-2.97v2.75h2.97Zm3.78,0v-2.75h-2.98v2.75h2.98Z"/>
    <path class="cls-1" d="m223.99,43.25c-.17,1.22-.49,2.97-.91,4.07l-.77-.32c.45-1.06.79-2.68.93-3.9l.75.15Zm1.68-.93v5.12c0,.48.12.57.72.57h1.99c.64,0,.74-.36.82-2.15.19.15.51.28.73.34-.11,1.96-.35,2.54-1.51,2.54h-2.09c-1.12,0-1.43-.28-1.43-1.31v-5.11h.78Zm.22-2.51c.97.66,2.2,1.64,2.8,2.3l-.55.57c-.57-.64-1.78-1.66-2.75-2.36l.51-.51Zm4.52,3.02c.6,1.24,1.17,2.83,1.39,3.9l-.76.3c-.21-1.07-.77-2.7-1.35-3.92l.72-.28Z"/>
    <path class="cls-1" d="m237.35,44.2c0,2.03-.82,3.68-2.07,4.95l-.62-.32c1.2-1.24,1.93-2.77,1.93-4.62s-.74-3.39-1.93-4.62l.62-.32c1.25,1.27,2.07,2.92,2.07,4.95Z"/>
  </g>
</svg>