<?xml version="1.0" encoding="UTF-8"?>
<svg width="50px" height="50px" viewBox="0 0 50 50" version="1.1" xmlns="http://www.w3.org/2000/svg" xmlns:xlink="http://www.w3.org/1999/xlink">
    <title>画板</title>
    <defs>
        <linearGradient x1="0%" y1="50.0046172%" x2="99.9981861%" y2="50.0046172%" id="linearGradient-1">
            <stop stop-color="#1650FF" offset="0%"></stop>
            <stop stop-color="#1659FF" offset="17%"></stop>
            <stop stop-color="#1671FF" offset="44%"></stop>
            <stop stop-color="#1677FF" offset="50%"></stop>
            <stop stop-color="#1680FF" offset="58%"></stop>
            <stop stop-color="#1698FF" offset="72%"></stop>
            <stop stop-color="#16C0FF" offset="89%"></stop>
            <stop stop-color="#16DEFF" offset="100%"></stop>
        </linearGradient>
    </defs>
    <g id="画板" stroke="none" stroke-width="1" fill="none" fill-rule="evenodd">
        <g id="logo">
            <rect id="矩形" x="0" y="0" width="50" height="50"></rect>
            <g transform="translate(3.000000, 12.000000)" fill="url(#linearGradient-1)" fill-rule="nonzero" id="形状">
                <path d="M38.8894955,6.85566534 L38.4105099,8.94782528 L38.2271944,9.75159294 L37.8457799,11.3886785 L37.8457799,11.3886785 L35.6637342,20.874319 L29.7798981,20.874319 C29.0210113,20.874319 28.4720504,20.6398867 28.1330153,20.1710223 C27.798908,19.7129929 27.7249905,19.0687967 27.9023926,18.256164 C27.9012822,18.2414097 27.9012822,18.2265929 27.9023926,18.2118386 L29.4812712,11.3886785 L30.5279436,6.85566534 L25.4778973,6.85566534 L24.4312249,11.3886785 L22.8434762,18.2472989 C22.8139092,18.3714101 22.7902556,18.4866562 22.7636453,18.6048573 C22.6042819,19.3511244 22.5191092,20.1113067 22.5093689,20.874319 C22.5093689,22.1745314 22.8405195,23.188106 23.4762103,23.920953 C23.9580361,24.4795467 24.5934132,24.8843961 25.3034519,25.0852341 C25.62282,25.1732669 25.9478266,25.2394162 26.2762067,25.283221 C27.0424955,25.373805 27.8138012,25.4152601 28.5853906,25.4073322 L39.6641514,25.4073322 L40.7137804,20.874319 L42.9046963,11.3886785 L43.9513686,6.85566534 L38.8894955,6.85566534 Z M1.79471784,0 L0,7.77172407 L13.3288106,0 L1.79471784,0 Z M17.9353516,0 C15.5285966,0 13.0656642,1.95327362 12.0396887,4.53301321 C11.9088004,4.86571385 11.8020825,5.20741286 11.720365,5.55545295 L7.13452085,25.4132422 L12.1904805,25.4132422 L16.2618585,7.82491458 C16.3712565,7.38461538 17.148869,4.53301321 20.0109561,4.53301321 L25.3980664,4.53301321 L26.4536088,0 L17.9353516,0 Z"></path>
            </g>
        </g>
    </g>
</svg>